<svg width="64" height="64" viewBox="0 0 64 64" fill="none" xmlns="http://www.w3.org/2000/svg">
<rect width="64" height="64" rx="32" fill="#30BF17"/>
<path d="M32 57C32.8809 57 33.5953 56.2871 33.5953 55.4063V48.8729H46.6574C47.2119 48.8729 47.7269 48.5849 48.0166 48.1134C48.3073 47.6418 48.3314 47.052 48.0806 46.5586L42.6535 35.8682H43.8342C44.3921 35.8682 44.9093 35.5772 45.1983 35.101C45.4873 34.6246 45.5068 34.0318 45.249 33.5384L40.4521 24.3483H40.8485C41.4279 24.3483 41.9616 24.0339 42.2429 23.528C42.5241 23.0224 42.5093 22.4045 42.2031 21.9127L33.3546 7.7003C32.772 6.76657 31.228 6.76657 30.6454 7.7003L21.7968 21.9127C21.4907 22.4045 21.4759 23.0224 21.7571 23.528C22.0382 24.0339 22.5719 24.3483 23.1515 24.3483H23.5479L18.751 33.5384C18.4932 34.0318 18.5126 34.6246 18.8016 35.101C19.0906 35.5772 19.6078 35.8682 20.1656 35.8682H21.3465L15.9194 46.5586C15.6686 47.052 15.6927 47.6418 15.9832 48.1134C16.2731 48.5849 16.7879 48.8729 17.3426 48.8729H30.4046V55.4063C30.4046 56.2871 31.1189 57 32 57ZM32 11.56L37.9772 21.161H26.0228L32 11.56ZM27.1458 24.3483H36.8542L41.2028 32.6808H22.797L27.1458 24.3483ZM24.9244 35.8682H39.0754L44.0595 45.6855H19.9405L24.9244 35.8682Z" fill="white"/>
</svg>
