<svg width="367" height="328" viewBox="0 0 367 328" fill="none" xmlns="http://www.w3.org/2000/svg">
<g filter="url(#filter0_d_39_423)">
<path d="M181.231 34.6454C181.231 34.6427 181.234 34.6417 181.236 34.644L215.963 90.4504L206.842 107.252C206.672 107.565 206.235 107.6 206.018 107.317L197.298 95.979C196.419 94.8368 195.071 94.1755 193.639 94.1755H193.543C192.075 94.2115 190.703 94.9329 189.86 96.1353L181.659 107.755C181.463 108.034 181.049 108.033 180.853 107.754L172.699 96.1473C171.869 94.957 170.521 94.2356 169.064 94.1875C167.584 94.1634 166.224 94.7766 165.31 95.9189L154.964 108.798C154.773 109.036 154.414 109.045 154.211 108.816L142.964 96.1473L181.231 34.6457C181.231 34.6456 181.231 34.6455 181.231 34.6454Z" fill="#85A797"/>
<path d="M36.6191 292.616C35.1176 292.616 34.1651 291.008 34.891 289.693C70.8991 224.501 109.21 154.86 139.355 101.021C139.52 100.727 139.921 100.686 140.148 100.935L151.397 113.306C152.312 114.304 153.563 114.845 154.959 114.821C156.307 114.773 157.583 114.147 158.425 113.089L168.256 100.844C168.461 100.588 168.855 100.601 169.044 100.869L177.464 112.849C178.33 114.075 179.738 114.809 181.243 114.821H181.255C182.759 114.821 184.167 114.087 185.034 112.861L193.422 100.975C193.613 100.704 194.013 100.695 194.215 100.959L203.495 113.017C204.374 114.159 205.734 114.821 207.154 114.821C207.274 114.821 207.394 114.821 207.515 114.809C209.079 114.688 210.463 113.787 211.209 112.416L219.779 96.7143C219.963 96.3766 220.438 96.3571 220.63 96.6904C250.769 148.894 301.004 236.688 331.584 289.683C332.343 290.998 331.379 292.616 329.861 292.616H36.6191Z" fill="#4D8269"/>
</g>
<defs>
<filter id="filter0_d_39_423" x="-7.24792e-05" y="4.95911e-05" width="366.492" height="327.258" filterUnits="userSpaceOnUse" color-interpolation-filters="sRGB">
<feFlood flood-opacity="0" result="BackgroundImageFix"/>
<feColorMatrix in="SourceAlpha" type="matrix" values="0 0 0 0 0 0 0 0 0 0 0 0 0 0 0 0 0 0 127 0" result="hardAlpha"/>
<feOffset/>
<feGaussianBlur stdDeviation="17.3213"/>
<feComposite in2="hardAlpha" operator="out"/>
<feColorMatrix type="matrix" values="0 0 0 0 0 0 0 0 0 0 0 0 0 0 0 0 0 0 0.2 0"/>
<feBlend mode="multiply" in2="BackgroundImageFix" result="effect1_dropShadow_39_423"/>
<feBlend mode="normal" in="SourceGraphic" in2="effect1_dropShadow_39_423" result="shape"/>
</filter>
</defs>
</svg>
