<svg width="180" height="180" viewBox="0 0 180 180" fill="none" xmlns="http://www.w3.org/2000/svg">
<g clip-path="url(#clip0_80_248)">
<g clip-path="url(#clip1_80_248)">
<mask id="mask0_80_248" style="mask-type:luminance" maskUnits="userSpaceOnUse" x="5" y="5" width="170" height="170">
<path d="M174.376 5.625H5.62561V174.375H174.376V5.625Z" fill="white"/>
</mask>
<g mask="url(#mask0_80_248)">
<path d="M90.0006 174.375C136.6 174.375 174.376 136.599 174.376 90C174.376 43.401 136.6 5.625 90.0006 5.625C43.4016 5.625 5.62561 43.401 5.62561 90C5.62561 136.599 43.4016 174.375 90.0006 174.375Z" fill="#30BF17"/>
</g>
</g>
<path d="M123.473 99.2763L123.499 99.2002L123.524 99.1494L123.549 99.0733V98.9971L123.575 98.9209L123.6 98.8448L123.625 98.794L123.651 98.7178L123.676 98.6417L123.702 98.5655L123.752 98.4894L123.778 98.4386L123.803 98.3625L123.829 98.3371V98.3117L123.854 98.2863L123.879 98.2355V98.2101L123.905 98.1848C124.336 97.5755 124.742 96.8647 125.301 96.5347C125.809 96.1793 125.91 95.5447 126.164 94.5038C126.24 92.6761 126.494 92.5745 126.57 92.3715C126.646 92.1684 126.773 91.5591 127.205 90.7976C127.509 90.2391 127.89 89.1221 127.763 88.7921C127.484 88.2336 127.256 87.7513 126.976 86.7866C126.596 84.5019 126.9 83.7404 127.383 83.0296C128.068 81.9888 128.5 81.3541 129.21 80.9987C129.54 80.8464 129.49 80.2118 129.439 79.7802C129.261 78.6632 129.591 78.7648 129.769 78.1809C129.972 77.597 130.124 76.8101 130.124 76.6324C130.124 76.4293 130.023 75.8962 129.972 75.6424C129.896 75.1854 129.82 74.5254 129.947 74.2715C130.15 73.9162 130.353 73.51 130.327 73.1546C130.327 73.0023 130.505 72.7738 130.581 72.5199C130.657 72.2915 130.81 71.733 130.81 71.3014C130.81 71.1745 130.962 70.286 131.063 69.6514C131.292 68.4075 131.14 67.7982 131.038 67.4428C130.937 66.9351 130.632 66.6813 130.657 66.5035C130.657 66.2751 130.607 65.5643 130.556 65.1327C130.53 64.8789 131.571 63.4319 131.774 63.1527C131.85 63.0004 131.698 62.0103 131.698 61.7818C131.698 61.5788 131.444 60.5379 131.444 60.2587C131.444 59.9541 131.495 59.7764 131.495 59.4971C131.47 59.1925 131.444 58.761 131.419 58.2025C131.368 57.1871 131.444 56.1462 131.47 55.867C131.47 55.6385 131.089 55.6385 130.403 55.2831C129.718 54.9277 128.246 53.4554 127.992 53.3538C127.738 53.2269 126.545 53.0238 125.885 53.0238C125.276 53.0238 123.93 53.3284 123.321 53.43C122.737 53.5061 122.001 53.2523 121.645 53.1507C121.29 53.0492 120.655 52.8715 120.376 52.9223C119.564 52.9984 118.244 53.0238 117.685 52.9223C117.025 52.7953 116.467 52.6176 116.137 52.4146C115.858 52.2115 115.756 52.2876 115.401 51.9576C115.121 51.7038 115.096 51.5514 114.867 51.5261C114.664 51.4753 112.735 51.323 112.38 50.9676C112.024 50.6122 111.542 50.0029 111.263 48.6575C110.983 47.3628 111.44 46.4489 111.923 46.1951C112.684 45.8143 113.725 45.1797 114.284 45.1289C114.537 45.1035 113.979 44.1135 113.7 43.1742C113.573 42.8188 113.04 42.895 111.821 41.5495C111.288 40.9403 110.323 39.7472 110.095 39.341C109.841 38.9348 110.12 38.7064 109.867 38.681C109.536 38.6556 108.445 38.7064 106.719 38.4017C104.992 38.0717 103.876 37.5894 103.342 37.4371C102.835 37.2848 101.616 36.8532 101.235 36.7263C100.855 36.5994 100.093 36.2947 99.4077 36.0409C98.7476 35.8124 98.443 35.2793 98.113 35.2539C97.7576 35.2539 96.4883 36.1424 94.9652 36.3455C93.442 36.5486 92.9089 36.1932 92.0966 36.0662C91.2335 35.9393 90.4465 35.787 89.4311 35.7109C88.4411 35.6347 85.4964 36.1678 84.9886 36.2439C84.4809 36.2947 83.7701 36.6501 83.1355 36.6501C82.7293 36.6501 80.47 37.3101 80.0892 37.3863C79.6831 37.4625 79.1246 37.2594 78.8453 37.3609C78.3884 37.4878 77.7284 37.6402 77.4999 37.6909C77.3222 37.7417 74.3521 38.7317 73.819 38.8333C73.2351 38.9602 72.3974 39.2394 71.712 39.4933C71.255 39.6964 70.9758 40.001 70.595 40.2549C69.3257 41.1434 68.9703 41.1688 68.3611 41.3718C67.9549 41.4988 67.7518 41.6511 66.8887 41.7019C66.0002 41.7526 65.7464 41.9303 65.7464 42.0572C65.7464 42.6665 65.5433 43.885 65.7718 43.9866C66.2541 44.2404 67.4472 46.1951 67.498 47.439C67.5741 48.759 67.3964 49.6983 67.3457 50.1045C67.2949 50.4599 67.2441 50.663 67.0664 50.866C66.9141 51.0691 65.8479 51.3991 65.2133 51.4753C64.5532 51.5007 64.2232 51.5261 61.9132 50.9168C60.1108 50.4599 59.9585 50.2822 59.73 50.0283C59.5523 49.7491 59.0954 49.5206 58.7907 49.3683C58.4607 49.216 58.1307 49.1398 57.8007 48.8352C57.4961 48.556 56.0999 49.2414 54.1706 49.3937C53.8151 49.4191 53.1551 50.5868 51.962 51.1961C51.0227 51.653 50.5912 51.8307 50.2866 52.0592C49.4234 52.643 48.408 52.7446 48.5349 52.9984C48.738 53.4808 48.3573 53.7346 48.4842 54.9277C48.6619 56.9332 48.2049 57.9486 48.2049 58.9133C48.1796 59.3956 48.738 59.9795 48.9919 60.1826C49.2204 60.3856 49.6773 61.071 49.8042 61.5788C49.9058 62.0865 49.7281 63.7365 49.4742 65.1074C49.2204 66.5036 49.0681 67.9251 49.1188 68.4329C49.1442 68.7629 49.5504 69.4483 49.7281 69.8291C49.9819 70.286 50.4643 71.9361 50.4896 72.7738C50.515 73.5354 50.3119 74.5 50.3119 74.6523C50.3119 74.8046 50.5658 75.4393 50.8196 75.7693C51.0989 76.1755 51.7335 77.5209 51.8859 77.8509C52.1143 78.3078 52.1905 78.8917 52.1905 78.8917C52.1905 78.8917 52.1143 79.5517 52.0889 79.9579C52.0635 80.3641 51.9112 81.7603 51.7589 83.5627C51.632 85.3143 51.632 86.7866 51.7843 86.9389C51.9874 87.142 52.3682 87.472 52.5205 87.7005C52.6474 87.9544 53.7644 89.8837 53.8913 90.1629C54.0182 90.4675 54.2975 91.2291 54.399 91.7622C54.5006 92.3207 54.6529 93.4123 54.7037 93.6915C54.7798 94.0723 55.2367 96.4078 55.3129 96.7886C55.4144 97.2709 55.5921 98.5909 55.6683 99.124C55.7191 99.7333 55.7698 100.723 55.8206 100.926C55.8714 101.104 56.0237 101.459 56.2014 101.866C56.4045 102.323 56.7599 103.668 56.836 103.973C56.9122 104.277 56.7853 104.683 56.8614 104.937C56.963 105.217 57.2676 105.445 57.3691 105.674C57.4707 105.902 58.283 107.527 58.6384 108.085C58.9684 108.567 60.1362 110.801 60.4662 111.538C60.5423 111.639 60.5423 111.715 60.5423 111.766C60.5423 112.045 60.5931 112.274 60.7454 112.375C60.8977 112.477 61.1516 113.01 61.3547 113.035C61.6339 113.086 61.9132 113.238 62.0401 113.391C62.167 113.594 63.1824 114.584 63.5632 114.99C63.944 115.396 64.1979 115.65 64.1471 116.005C64.0963 116.285 64.1217 116.742 64.274 116.894C64.5532 117.173 64.9848 117.402 65.7971 118.468C66.4826 119.382 66.7364 120.143 67.0918 120.778C67.2949 121.159 67.5995 122.225 67.5995 122.504C67.5995 122.783 67.7772 122.986 67.9295 123.139C68.1072 123.367 68.5642 123.748 68.8942 123.9C69.0719 123.977 69.5796 124.433 70.0365 124.967C70.4935 125.474 70.8743 125.906 71.0773 127.099C71.1535 127.454 71.1535 127.759 71.2804 127.784C71.4074 127.81 71.712 127.886 71.7881 128.038C71.8897 128.165 71.8897 128.368 72.0928 128.495C72.6766 128.901 72.7528 129.307 72.829 129.587C72.8543 129.841 72.9813 130.577 73.0574 130.881C73.0828 131.11 74.2759 132.379 74.5806 132.836C74.8344 133.242 75.2152 133.318 76.0783 133.801C76.916 134.258 76.9668 134.562 77.0176 134.791C77.0683 135.045 77.043 136.238 77.1191 136.365C77.3222 136.644 77.4491 136.517 77.7791 136.923C78.1092 137.329 78.5407 137.913 78.7438 138.192C78.9469 138.472 80.6731 139.538 81.6124 140.401C81.8408 140.629 82.3993 141.213 82.7801 141.493C83.0593 141.67 83.4401 141.848 83.7447 142C84.0748 142.153 84.5571 142.305 85.5217 142.99C85.7502 143.117 86.3087 143.396 86.6387 143.6C87.0449 143.853 88.1872 144.488 88.6188 144.488C89.5073 144.488 89.9642 144.843 90.4719 144.717C92.6043 144.31 93.0866 144.006 93.569 143.549C94.0005 143.092 94.7367 142.076 94.9652 141.899C95.219 141.67 95.9552 140.807 96.5645 140.401C98.2399 138.776 98.0622 139.106 99.103 138.421C99.6615 138.04 100.169 137.913 100.499 137.431C101.007 136.593 101.794 135.425 101.921 134.918C102.022 134.613 102.2 134.537 102.327 134.207C102.429 133.928 102.378 133.699 102.733 133.547C103.012 133.42 103.672 132.658 104.028 132.481C104.256 132.354 104.079 131.668 104.358 131.364C104.536 131.135 105.373 130.577 106.109 130.044C107.506 129.054 108.496 127.708 109.029 127.2C109.587 126.617 109.308 125.779 109.13 125.525L109.536 124.916C109.536 124.916 110.273 124.103 110.704 123.646C111.136 123.24 112.304 121.768 112.608 121.463C112.862 121.235 112.71 119.966 112.76 119.61C112.786 119.229 113.624 118.595 113.903 118.316C114.182 118.036 114.309 117.782 114.334 117.249C114.385 116.742 114.741 114.482 114.867 114.076C114.944 113.873 115.02 113.721 115.121 113.568C115.35 113.213 115.604 112.959 115.832 112.705C116.111 112.375 117.508 110.7 118.168 110.116L118.295 110.04C118.625 109.811 118.421 109.557 118.421 109.253C118.421 109.101 118.548 108.796 118.751 108.466C118.929 108.111 119.183 107.679 119.386 107.476C119.97 106.816 119.868 106.435 120.833 105.724C121.188 105.47 121.062 104.709 121.062 104.709C121.062 104.709 121.036 104.43 121.239 103.973C121.442 103.516 122.153 102.653 122.585 102.196C122.762 102.018 122.915 101.459 122.915 101.18C122.915 100.926 122.864 100.419 123.143 99.8856C123.194 99.7841 123.245 99.6825 123.321 99.581C123.372 99.5048 123.422 99.3779 123.473 99.2763Z" fill="white"/>
</g>
<defs>
<clipPath id="clip0_80_248">
<rect width="180" height="180" fill="white"/>
</clipPath>
<clipPath id="clip1_80_248">
<rect width="168.75" height="168.75" fill="white" transform="translate(5.625 5.625)"/>
</clipPath>
</defs>
</svg>
