<svg width="180" height="180" viewBox="0 0 180 180" fill="none" xmlns="http://www.w3.org/2000/svg">
<g clip-path="url(#clip0_80_248)">
<g clip-path="url(#clip1_80_248)">
<mask id="mask0_80_248" style="mask-type:luminance" maskUnits="userSpaceOnUse" x="5" y="5" width="170" height="170">
<path d="M174.376 5.625H5.62555V174.375H174.376V5.625Z" fill="white"/>
</mask>
<g mask="url(#mask0_80_248)">
<path d="M90.0005 174.375C136.6 174.375 174.376 136.599 174.376 90C174.376 43.401 136.6 5.625 90.0005 5.625C43.4015 5.625 5.62555 43.401 5.62555 90C5.62555 136.599 43.4015 174.375 90.0005 174.375Z" fill="#30BF17"/>
</g>
</g>
<path d="M89.9999 155.918C92.3228 155.918 94.2065 154.038 94.2065 151.716V134.489H128.647C130.11 134.489 131.467 133.73 132.231 132.486C132.998 131.243 133.061 129.688 132.4 128.387L118.09 100.199H121.204C122.675 100.199 124.038 99.432 124.8 98.1764C125.562 96.9204 125.614 95.3573 124.934 94.0563L112.286 69.8246H113.331C114.859 69.8246 116.266 68.9956 117.008 67.6618C117.749 66.3285 117.71 64.6994 116.903 63.4026L93.5717 25.9285C92.0355 23.4665 87.9644 23.4665 86.4282 25.9285L63.0971 63.4026C62.2899 64.6994 62.2508 66.3285 62.9924 67.6618C63.7336 68.9956 65.1407 69.8246 66.6689 69.8246H67.7142L55.0661 94.0563C54.3863 95.3573 54.4376 96.9204 55.1994 98.1764C55.9616 99.432 57.3254 100.199 58.796 100.199H61.9096L47.5999 128.387C46.9386 129.688 47.0021 131.243 47.7682 132.486C48.5325 133.73 49.8899 134.489 51.3525 134.489H85.7934V151.716C85.7934 154.038 87.6767 155.918 89.9999 155.918ZM89.9999 36.1055L105.76 61.4205H74.2398L89.9999 36.1055ZM77.2008 69.8246H102.799L114.265 91.7952H65.7342L77.2008 69.8246ZM71.3436 100.199H108.656L121.797 126.085H58.2024L71.3436 100.199Z" fill="white"/>
</g>
<defs>
<clipPath id="clip0_80_248">
<rect width="180" height="180" fill="white"/>
</clipPath>
<clipPath id="clip1_80_248">
<rect width="168.75" height="168.75" fill="white" transform="translate(5.625 5.625)"/>
</clipPath>
</defs>
</svg>
