<svg width="302" height="300" viewBox="0 0 302 300" fill="none" xmlns="http://www.w3.org/2000/svg">
<path d="M107.235 120.159V90.027L149.132 15.989L189.021 84.8614L193.899 106.671L184.429 117.863L107.235 120.159Z" fill="#F4EFE9"/>
<path d="M2.01688 284.011C0.477272 284.011 -0.499684 282.369 0.266944 281.034C30.3146 228.702 76.4843 141.093 106.136 89.6805C106.305 89.3871 106.705 89.3543 106.933 89.6048L118.348 102.158C119.276 103.17 120.545 103.719 121.961 103.695C123.328 103.646 124.621 103.012 125.476 101.939L135.446 89.5196C135.654 89.26 136.054 89.2727 136.245 89.5451L144.785 101.695C145.663 102.939 147.091 103.682 148.617 103.695H148.629C150.155 103.695 151.583 102.951 152.462 101.707L160.969 89.6525C161.163 89.3773 161.568 89.3689 161.774 89.6358L171.185 101.865C172.076 103.024 173.455 103.694 174.895 103.694C175.018 103.694 175.14 103.694 175.262 103.682C176.848 103.56 178.252 102.646 179.009 101.256L187.699 85.3313C187.886 84.9888 188.368 84.9691 188.563 85.3071C219.13 138.251 270.076 227.29 301.091 281.037C301.86 282.371 300.883 284.011 299.343 284.011H2.01688Z" fill="#93773C"/>
</svg>
